HIERARCHY
ROOT Hips
{
	OFFSET 0.000000 0.000000 0.000000
	CHANNELS 6 Xposition Yposition Zposition Zrotation Yrotation Xrotation 
	JOINT LHipJoint
	{
		OFFSET 0.000000 0.000000 0.000000
		CHANNELS 3 Zrotation Yrotation Xrotation
		JOINT LeftUpLeg
		{
			OFFSET 1.363060 -1.794630 0.839290
			CHANNELS 3 Zrotation Yrotation Xrotation
			JOINT LeftLeg
			{
				OFFSET 2.448110 -6.726130 0.000000
				CHANNELS 3 Zrotation Yrotation Xrotation
				JOINT LeftFoot
				{
					OFFSET 2.562200 -7.039590 0.000000
					CHANNELS 3 Zrotation Yrotation Xrotation
					JOINT LeftToeBase
					{
						OFFSET 0.157640 -0.433110 2.322550
						CHANNELS 3 Zrotation Yrotation Xrotation
						End Site
						{
							OFFSET 0.000000 0.000000 0.000000
						}
					}
				}
			}
		}
	}
	JOINT RHipJoint
	{
		OFFSET 0.000000 0.000000 0.000000
		CHANNELS 3 Zrotation Yrotation Xrotation
		JOINT RightUpLeg
		{
			OFFSET -1.305520 -1.794630 0.839290
			CHANNELS 3 Zrotation Yrotation Xrotation
			JOINT RightLeg
			{
				OFFSET -2.542530 -6.985550 0.000000
				CHANNELS 3 Zrotation Yrotation Xrotation
				JOINT RightFoot
				{
					OFFSET -2.568260 -7.056230 0.000000
					CHANNELS 3 Zrotation Yrotation Xrotation
					JOINT RightToeBase
					{
						OFFSET -0.164730 -0.452590 2.363150
						CHANNELS 3 Zrotation Yrotation Xrotation
						End Site
						{
							OFFSET 0.000000 0.000000 0.000000
						}
					}
				}
			}
		}
	}
	JOINT LowerBack
	{
		OFFSET 0.000000 0.000000 0.000000
		CHANNELS 3 Zrotation Yrotation Xrotation
		JOINT Spine
		{
			OFFSET 0.028270 2.035590 -0.193380
			CHANNELS 3 Zrotation Yrotation Xrotation
			JOINT Spine1
			{
				OFFSET 0.056720 2.048850 -0.042750
				CHANNELS 3 Zrotation Yrotation Xrotation
				JOINT Neck
				{
					OFFSET 0.000000 0.000000 0.000000
					CHANNELS 3 Zrotation Yrotation Xrotation
					JOINT Neck1
					{
						OFFSET -0.054170 1.746240 0.172020
						CHANNELS 3 Zrotation Yrotation Xrotation
						JOINT Head
						{
							OFFSET 0.104070 1.761360 -0.123970
							CHANNELS 3 Zrotation Yrotation Xrotation
							End Site
							{
								OFFSET 0.000000 0.000000 0.000000
							}
						}
					}
				}
				JOINT LeftShoulder
				{
					OFFSET 0.000000 0.000000 0.000000
					CHANNELS 3 Zrotation Yrotation Xrotation
					JOINT LeftArm
					{
						OFFSET 3.362410 1.200890 -0.311210
						CHANNELS 3 Zrotation Yrotation Xrotation
						JOINT LeftForeArm
						{
							OFFSET 4.983000 -0.000000 -0.000000
							CHANNELS 3 Zrotation Yrotation Xrotation
							JOINT LeftHand
							{
								OFFSET 3.483560 -0.000000 -0.000000
								CHANNELS 3 Zrotation Yrotation Xrotation
								JOINT LeftFingerBase
								{
									OFFSET 0.000000 0.000000 0.000000
									CHANNELS 3 Zrotation Yrotation Xrotation
									JOINT LeftHandIndex1
									{
										OFFSET 0.715260 -0.000000 -0.000000
										CHANNELS 3 Zrotation Yrotation Xrotation
										End Site
										{
											OFFSET 0.000000 0.000000 0.000000
										}
									}
								}
								JOINT LThumb
								{
									OFFSET 0.000000 0.000000 0.000000
									CHANNELS 3 Zrotation Yrotation Xrotation
									End Site
									{
										OFFSET 0.000000 0.000000 0.000000
									}
								}
							}
						}
					}
				}
				JOINT RightShoulder
				{
					OFFSET 0.000000 0.000000 0.000000
					CHANNELS 3 Zrotation Yrotation Xrotation
					JOINT RightArm
					{
						OFFSET -3.136600 1.374050 -0.404650
						CHANNELS 3 Zrotation Yrotation Xrotation
						JOINT RightForeArm
						{
							OFFSET -5.241900 -0.000000 -0.000000
							CHANNELS 3 Zrotation Yrotation Xrotation
							JOINT RightHand
							{
								OFFSET -3.444170 -0.000000 -0.000000
								CHANNELS 3 Zrotation Yrotation Xrotation
								JOINT RightFingerBase
								{
									OFFSET 0.000000 0.000000 0.000000
									CHANNELS 3 Zrotation Yrotation Xrotation
									JOINT RightHandIndex1
									{
										OFFSET -0.622530 -0.000000 -0.000000
										CHANNELS 3 Zrotation Yrotation Xrotation
										End Site
										{
											OFFSET 0.000000 0.000000 0.000000
										}
									}
								}
								JOINT RThumb
								{
									OFFSET 0.000000 0.000000 0.000000
									CHANNELS 3 Zrotation Yrotation Xrotation
									End Site
									{
										OFFSET 0.000000 0.000000 0.000000
									}
								}
							}
						}
					}
				}
			}
		}
	}
}
MOTION
Frames: 8
Frame Time: 0.008333
13.660182 15.670290 2.197150 87.163066 -86.119169 -42.301252 -8.277383 -0.221600 4.190115 -11.396719 -11.248333 -75.298260 -1.954170 2.699127 48.493457 3.437865 9.144881 -21.960369 -2.128800 -0.000001 -36.404700 8.786616 1.002946 4.384996 4.919758 4.367476 -78.465591 1.443194 -4.422518 53.458369 -3.185303 -6.177267 -23.215627 1.567100 0.000000 -51.048500 1.210635 -2.411343 -6.520608 -0.379956 -2.746630 -4.310039 -5.260632 -2.971190 1.481184 10.934622 -9.469312 -15.598615 -2.795692 -0.087778 -2.747526 0.000000 0.000000 0.000000 0.676914 10.203708 4.596890 -72.763860 3.376745 -24.418586 -0.542108 -14.726932 -0.034371 35.427364 -8.075180 -2.601624 0.006369 0.057391 -0.000000 0.000000 0.000000 0.000000 0.000000 0.000000 0.000000 13.965644 -6.615956 3.800240 71.410806 7.524480 -30.313748 0.595022 18.587980 -0.048234 -24.131774 14.909983 -3.269360 0.140081 -0.213754 -0.000000 0.000000 0.000000 0.000000 0.000000 0.000000 0.000000 
13.637286 15.623741 2.204101 87.053217 -86.071332 -41.530218 -8.253570 -0.221581 4.275575 -11.323526 -11.580247 -76.363268 -1.922474 2.786475 49.192899 3.472814 9.124198 -22.265078 -2.179800 -0.000000 -36.356300 8.796065 1.028386 4.450641 4.854561 4.374337 -79.589589 1.429346 -4.545776 54.167574 -3.177321 -6.034500 -23.478563 1.585700 -0.000000 -51.142700 1.225746 -2.437915 -6.634095 -0.373761 -2.778274 -4.320554 -5.255473 -3.005114 1.587398 11.053406 -9.719064 -15.836354 -2.756501 -0.081256 -2.823347 0.000000 0.000000 0.000000 0.531900 10.603858 4.630807 -72.435471 4.176261 -24.941867 -0.534371 -13.935463 -0.032599 35.360509 -7.604718 -2.445007 0.004824 0.054827 -0.000000 0.000000 0.000000 0.000000 0.000000 0.000000 0.000000 14.052201 -6.893092 3.871192 71.266592 6.489063 -31.249839 0.582462 17.566608 -0.046289 -24.190150 14.718597 -3.233972 0.139860 -0.206822 -0.000000 0.000000 0.000000 0.000000 0.000000 0.000000 0.000000 
13.614426 15.576580 2.210743 86.927717 -86.010866 -40.726387 -8.227441 -0.219862 4.365723 -11.236810 -11.943403 -77.435825 -1.887199 2.869771 49.874433 3.511618 9.123248 -22.555668 -2.230600 0.000000 -36.313800 8.807525 1.059316 4.521629 4.753303 4.391681 -80.731848 1.407525 -4.667239 54.879749 -3.176426 -5.922530 -23.738660 1.606900 0.000000 -51.227000 1.231047 -2.464871 -6.753944 -0.369646 -2.809780 -4.333923 -5.249256 -3.038958 1.684183 11.170598 -9.961850 -16.068474 -2.717078 -0.074669 -2.898313 0.000000 0.000000 0.000000 0.395835 10.980406 4.663840 -72.082746 4.970863 -25.467339 -0.526319 -13.211525 -0.030952 35.286623 -7.167362 -2.299290 0.002684 0.052573 -0.000000 0.000000 0.000000 0.000000 0.000000 0.000000 0.000000 14.138657 -7.163771 3.943510 71.094625 5.448630 -32.193018 0.563477 16.606885 -0.044572 -24.259454 14.508767 -3.195883 0.139680 -0.200332 -0.000000 0.000000 0.000000 0.000000 0.000000 0.000000 0.000000 
13.591703 15.528649 2.217123 86.786782 -85.936415 -39.890214 -8.198771 -0.216992 4.460471 -11.133824 -12.341014 -78.517346 -1.847408 2.948694 50.542236 3.555487 9.146654 -22.834864 -2.282700 0.000000 -36.262799 8.820985 1.096605 4.597117 4.613244 4.416796 -81.892832 1.377357 -4.787101 55.599268 -3.182925 -5.841704 -24.000366 1.632000 -0.000000 -51.290400 1.226066 -2.492524 -6.878815 -0.367821 -2.841416 -4.350096 -5.242000 -3.073005 1.770657 11.284235 -10.193725 -16.292327 -2.677899 -0.068097 -2.971653 0.000000 0.000000 0.000000 0.268767 11.328907 4.696197 -71.710853 5.759978 -25.990719 -0.517929 -12.555007 -0.029422 35.202837 -6.765838 -2.165175 -0.000024 0.050600 -0.000000 0.000000 0.000000 0.000000 0.000000 0.000000 0.000000 14.223641 -7.424486 4.016858 70.899268 4.406247 -33.134255 0.538704 15.704378 -0.043052 -24.341089 14.296090 -3.158695 0.139536 -0.194294 -0.000000 0.000000 0.000000 0.000000 0.000000 0.000000 0.000000 
13.569123 15.479740 2.223296 86.626929 -85.849434 -39.019576 -8.167709 -0.214154 4.558481 -11.011097 -12.771639 -79.608450 -1.802237 3.023312 51.202822 3.605229 9.197062 -23.107352 -2.337600 -0.000001 -36.190000 8.835873 1.140403 4.675590 4.436063 4.448936 -83.070209 1.339113 -4.905451 56.329142 -3.196958 -5.790884 -24.269954 1.662000 0.000000 -51.316300 1.212375 -2.520811 -7.005412 -0.367851 -2.873142 -4.366906 -5.233182 -3.107131 1.852113 11.396954 -10.428292 -16.512764 -2.637564 -0.061313 -3.044836 0.000000 0.000000 0.000000 0.149745 11.669168 4.725845 -71.319895 6.514783 -26.498206 -0.509068 -11.946199 -0.027996 35.109089 -6.412687 -2.046561 -0.003263 0.048861 -0.000000 0.000000 0.000000 0.000000 0.000000 0.000000 0.000000 14.309598 -7.691420 4.088723 70.677187 3.389352 -34.046610 0.509440 14.841615 -0.041674 -24.442989 14.097911 -3.127107 0.139497 -0.188679 -0.000000 0.000000 0.000000 0.000000 0.000000 0.000000 0.000000 
13.546932 15.429594 2.229209 86.448444 -85.746000 -38.116266 -8.133709 -0.211392 4.660561 -10.866991 -13.240784 -80.711601 -1.750527 3.093429 51.863002 3.662134 9.279203 -23.376106 -2.397100 0.000000 -36.086500 8.852713 1.192019 4.756756 4.217559 4.482710 -84.267629 1.291889 -5.023145 57.078579 -3.218491 -5.769422 -24.551696 1.698000 0.000000 -51.297900 1.188103 -2.550669 -7.134493 -0.370491 -2.905801 -4.387784 -5.223601 -3.142362 1.916738 11.497150 -10.628385 -16.713197 -2.600033 -0.054984 -3.112836 0.000000 0.000000 0.000000 0.040681 11.954244 4.757420 -70.924828 7.289168 -26.998243 -0.499687 -11.418915 -0.026677 35.006256 -6.088723 -1.937446 -0.006963 0.047340 -0.000000 0.000000 0.000000 0.000000 0.000000 0.000000 0.000000 14.386074 -7.923262 4.162576 70.448624 2.354149 -34.956619 0.475190 14.037407 -0.040441 -24.551673 13.925020 -3.101818 0.139439 -0.183593 -0.000000 0.000000 0.000000 0.000000 0.000000 0.000000 0.000000 
13.525245 15.377936 2.234871 86.246771 -85.626567 -37.178987 -8.096803 -0.209638 4.765682 -10.699134 -13.746958 -81.827664 -1.691398 3.159310 52.530764 3.726690 9.394552 -23.645149 -2.462500 -0.000000 -35.947300 8.871251 1.251840 4.839346 3.958735 4.515349 -85.483105 1.235604 -5.140633 57.853159 -3.247346 -5.775590 -24.850883 1.740900 0.000000 -51.223600 1.154101 -2.582382 -7.263854 -0.375619 -2.939686 -4.412429 -5.213340 -3.178991 1.964007 11.582533 -10.790321 -16.891468 -2.566060 -0.049229 -3.174949 0.000000 0.000000 0.000000 -0.059235 12.180718 4.791199 -70.531330 8.085968 -27.481405 -0.489897 -10.973540 -0.025452 34.897016 -5.791889 -1.837134 -0.011049 0.045990 -0.000000 0.000000 0.000000 0.000000 0.000000 0.000000 0.000000 14.451909 -8.116113 4.238159 70.219024 1.302332 -35.859685 0.436777 13.286417 -0.039325 -24.664437 13.788309 -3.084929 0.139369 -0.179050 -0.000000 0.000000 0.000000 0.000000 0.000000 0.000000 0.000000 
13.504083 15.324617 2.240371 86.013271 -85.497876 -36.204131 -8.057911 -0.211296 4.870121 -10.503719 -14.277931 -82.958616 -1.624493 3.222527 53.218948 3.797773 9.537413 -23.921683 -2.535000 -0.000000 -35.770300 8.889959 1.318756 4.921037 3.668532 4.550260 -86.709730 1.171171 -5.257880 58.654680 -3.283433 -5.806963 -25.174502 1.791900 0.000000 -51.077500 1.115375 -2.614701 -7.387311 -0.381660 -2.973650 -4.435607 -5.200578 -3.215624 2.008114 11.661590 -10.952588 -17.064156 -2.531179 -0.043324 -3.236176 0.000000 0.000000 0.000000 -0.150573 12.405302 4.822230 -70.130422 8.830720 -27.922451 -0.479062 -10.556908 -0.024303 34.789347 -5.551022 -1.755222 -0.015439 0.044773 0.000000 0.000000 0.000000 0.000000 0.000000 0.000000 0.000000 14.512827 -8.313258 4.310295 69.976141 0.290940 -36.703317 0.396276 12.557436 -0.038270 -24.797103 13.691008 -3.079239 0.139471 -0.174937 -0.000000 0.000000 0.000000 0.000000 0.000000 0.000000 0.000000 
